<?xml version="1.0" encoding="UTF-8"?> <svg xmlns="http://www.w3.org/2000/svg" width="100" height="100" viewBox="0 0 100 100" fill="none"><path d="M79.4 3.4C77.5 5.3 76 7.5 76 8.4C76 9.3 75.4 10 74.6 10C71.9 10 68 15.1 68 18.6V22H78H88V18.6C88 16 87.2 14.5 84.4 12C80.9 9 80.8 8.8 82.6 6.9C83.9 5.4 85.4 5 88.4 5.2C94.9 5.7 96 9 96 27.2V42H48H0V48C0 51.3 0.4 54 1 54C1.5 54 2.9 54.9 4 56C5.7 57.7 6 59.3 6 66C6 72.1 6.5 75 8 77.9C10 81.9 16.5 88 18.7 88C21.1 88 21 90 18.6 91.2C14.9 92.8 15.2 96 19 96C21.9 96 26 93.1 26 91C26 90.4 34.7 90 50 90C65.3 90 74 90.4 74 91C74 93.1 78.1 96 81 96C84.8 96 85.1 92.8 81.4 91.2C79 90 78.9 88 81.3 88C83.5 88 90 81.9 92 77.9C93.5 75 94 72.1 94 66C94 59.3 94.3 57.7 96 56C97.1 54.9 98.4 54 99 54C99.6 54 100 45.5 100 30.4V6.8L96.6 3.4C93.6 0.399999 92.6 -1.43051e-06 88 -1.43051e-06C83.4 -1.43051e-06 82.4 0.399999 79.4 3.4ZM81.8 16.7C82 17.6 80.9 18 78.1 18C74.2 18 73.1 17.2 74.7 15.6C75.8 14.5 81.3 15.4 81.8 16.7ZM96 48C96 50 95.3 50 50 50C4.7 50 4 50 4 48C4 46 4.7 46 50 46C95.3 46 96 46 96 48ZM90 60C90 74.7 85.2 82.7 75.1 84.9C68.3 86.3 31.6 86.3 24.8 84.9C14.7 82.7 10 74.8 10 60V54H50H90V60Z" fill="black"></path><path d="M70 26C70 27.3 70.7 28 72 28C73.3 28 74 27.3 74 26C74 24.7 73.3 24 72 24C70.7 24 70 24.7 70 26Z" fill="black"></path><path d="M76 26C76 27.3 76.7 28 78 28C79.3 28 80 27.3 80 26C80 24.7 79.3 24 78 24C76.7 24 76 24.7 76 26Z" fill="black"></path><path d="M82 26C82 27.3 82.7 28 84 28C85.3 28 86 27.3 86 26C86 24.7 85.3 24 84 24C82.7 24 82 24.7 82 26Z" fill="black"></path><path d="M68 32C68 33.3 68.7 34 70 34C71.3 34 72 33.3 72 32C72 30.7 71.3 30 70 30C68.7 30 68 30.7 68 32Z" fill="black"></path><path d="M76 32C76 33.3 76.7 34 78 34C79.3 34 80 33.3 80 32C80 30.7 79.3 30 78 30C76.7 30 76 30.7 76 32Z" fill="black"></path><path d="M84 32C84 33.3 84.7 34 86 34C87.3 34 88 33.3 88 32C88 30.7 87.3 30 86 30C84.7 30 84 30.7 84 32Z" fill="black"></path><path d="M66 38C66 39.3 66.7 40 68 40C69.3 40 70 39.3 70 38C70 36.7 69.3 36 68 36C66.7 36 66 36.7 66 38Z" fill="black"></path><path d="M76 38C76 39.3 76.7 40 78 40C79.3 40 80 39.3 80 38C80 36.7 79.3 36 78 36C76.7 36 76 36.7 76 38Z" fill="black"></path><path d="M86 38C86 39.3 86.7 40 88 40C89.3 40 90 39.3 90 38C90 36.7 89.3 36 88 36C86.7 36 86 36.7 86 38Z" fill="black"></path></svg> 