<?xml version="1.0" encoding="UTF-8"?> <svg xmlns="http://www.w3.org/2000/svg" width="100" height="100" viewBox="0 0 100 100" fill="none"><g clip-path="url(#clip0_2_4)"><path d="M5.20002 21.2C4.40002 22 4.00002 27.4 4.00002 39C4.00002 52.9 3.70002 56.3 2.30002 59.1C0.800024 61.9 0.400024 65.8 0.200024 81.3L-0.0999756 100H6.80002H13.7L14.2 95C14.5 92.2 15 89.6 15.4 89.2C16.4 88.3 83.6 88.3 84.6 89.2C85 89.6 85.5 92.2 85.8 95L86.3 100H93.2H100.1L99.8 81.3C99.6 65.8 99.2 61.9 97.8 59.1C96.3 56.3 96 52.9 96 39C96 27.4 95.6 22 94.8 21.2C93.1 19.5 6.90002 19.5 5.20002 21.2ZM90.8 25.2C91.6 26 92 30.5 92 38.7V51.1L89 49.5C86.4 48.1 86.1 47.5 85.8 42.3C85.5 36.5 85.5 36.5 81.5 35.2C78.6 34.2 73.9 34 64.5 34.4C48.8 35.1 51.2 35.1 35.5 34.4C26.1 34 21.4 34.2 18.5 35.2C14.5 36.5 14.5 36.5 14.2 42.3C13.9 47.5 13.6 48.1 11 49.5L8.00002 51.1V38.7C8.00002 30.5 8.40002 26 9.20002 25.2C10.9 23.5 89.1 23.5 90.8 25.2ZM45.8 40.1C47 40.6 48 41.6 48 42.5C48 43.7 46.4 44 39.3 44C34.4 44 27.7 44.6 24.3 45.4L18 46.7V43.9C18 42.4 18.5 40.8 19.2 40.4C22.3 38.4 40.8 38.2 45.8 40.1ZM79.8 40.1C81.4 40.7 82 41.8 82 43.8V46.7L75.8 45.4C72.3 44.6 65.6 44 60.8 44C53.8 44 52 43.7 52 42.6C52 40.4 53.7 39.7 60.4 39.1C67.4 38.4 76.4 38.9 79.8 40.1ZM75.3 50.6C84.9 52.5 90 55.5 92.8 61C94 63.5 95 67.3 95 69.7V74H50H5.00002V69.7C5.10002 56.4 14.7 50.3 37.5 49.1C52 48.3 66.9 48.9 75.3 50.6ZM96 87V96H93C90.1 96 90 95.8 90 91.8C90 83.7 91.5 84 50.2 84C8.70002 84 10 83.8 10 91.7C10 95.8 9.90002 96 7.00002 96H4.00002V87V78H50H96V87Z" fill="black"></path></g><defs><clipPath id="clip0_2_4"><rect width="100" height="100" fill="white"></rect></clipPath></defs></svg> 