<svg width="50" height="50" viewBox="0 0 50 50" fill="none" xmlns="http://www.w3.org/2000/svg">
<path d="M24.1325 0.0352757C9.23846 0.816212 -0.593353 12.5374 0.0278289 27.3179C0.29915 33.7875 2.89098 39.3543 3.50502 45.4944C3.6621 47.0849 3.20514 49.048 5.03298 49.743C7.28209 50.5955 10.7307 49.1626 12.6157 47.8515C13.2583 47.4145 13.8723 46.9058 14.3436 46.2753C16.2928 47.5721 18.1421 48.8259 20.4626 49.3847C30.6799 51.8422 41.8755 46.218 46.8521 37.1835C56.2055 20.2107 43.5605 -0.982091 24.1325 0.0352757ZM18.3491 35.4568C17.5423 36.0873 16.764 36.9471 15.8715 37.4414C14.5792 38.1364 14.1794 37.4128 13.6938 36.2664C12.1659 32.6197 11.9802 26.408 12.8727 22.5893C14.0723 17.395 18.0778 12.824 23.5828 12.3368C29.152 11.8425 34.3214 14.6796 36.6561 19.8023C41.8255 31.2011 28.5951 42.4566 18.3491 35.464V35.4568Z" fill="white"/>
</svg>
